<?xml version="1.0" encoding="UTF-8"?>
<svg xmlns="http://www.w3.org/2000/svg" xmlns:xlink="http://www.w3.org/1999/xlink" width="20px" height="50px" viewBox="0 0 20 50" version="1.1">
<defs>
<linearGradient id="linear0" gradientUnits="userSpaceOnUse" x1="1288.4" y1="314.78" x2="1290" y2="274.25" gradientTransform="matrix(0.141507,0,0,0.141347,-172.582377,-33.688883)">
<stop offset="0" style="stop-color:rgb(60%,60%,60%);stop-opacity:1;"/>
<stop offset="1" style="stop-color:rgb(60%,60%,60%);stop-opacity:0;"/>
</linearGradient>
</defs>
<g id="surface1">
<path style="fill-rule:nonzero;fill:rgb(20%,20%,20%);fill-opacity:1;stroke-width:0.83782;stroke-linecap:square;stroke-linejoin:miter;stroke:rgb(18.039216%,20.392157%,21.176471%);stroke-opacity:1;stroke-miterlimit:4;" d="M 582.883825 534.899397 L 603.828815 534.900649 C 605.391712 534.911961 606.660285 536.193185 606.674218 537.766011 C 606.661883 539.330348 605.407261 540.609418 603.818096 540.589618 L 582.873106 540.588365 C 581.301711 540.60335 580.033139 539.322126 580.045473 537.757789 C 580.03154 536.184963 581.31243 534.914382 582.883825 534.899397 Z M 582.883825 534.899397 " transform="matrix(0.134651,-0.0434627,0.0435118,0.134499,-98.68202,-32.386966)"/>
<path style="fill-rule:nonzero;fill:rgb(18.039216%,20.392157%,21.176471%);fill-opacity:1;stroke-width:1;stroke-linecap:square;stroke-linejoin:miter;stroke:rgb(18.039216%,20.392157%,21.176471%);stroke-opacity:1;stroke-miterlimit:4;" d="M 769.250109 260.111123 C 774.550219 260.111123 778.828953 264.864503 778.828953 270.72332 L 778.828953 304.798422 C 778.828953 310.657239 774.550219 315.410619 769.250109 315.410619 C 763.949999 315.410619 759.64366 310.657239 759.64366 304.798422 L 759.64366 270.72332 C 759.64366 264.864503 763.949999 260.111123 769.250109 260.111123 Z M 769.250109 260.111123 " transform="matrix(0.141507,0,0,0.141347,-98.68202,-32.386966)"/>
<path style="fill-rule:nonzero;fill:rgb(10.196078%,10.196078%,10.196078%);fill-opacity:1;stroke-width:1;stroke-linecap:butt;stroke-linejoin:miter;stroke:rgb(0%,0%,0%);stroke-opacity:1;stroke-miterlimit:4;" d="M 741.700581 334.368867 L 743.991774 337.906266 L 753.322175 340.421135 L 759.395218 346.473404 L 762.155691 349.513356 L 765.689098 351.779502 L 773.280401 351.282056 L 776.068479 349.513356 L 778.828953 345.47851 L 784.377505 340.669859 L 794.232397 338.901159 L 793.983954 334.61759 L 792.217251 309.109627 L 787.165584 292.196438 L 769.746994 280.312988 L 765.689098 280.312988 L 748.022066 293.688778 L 742.970399 310.10452 Z M 741.700581 334.368867 " transform="matrix(0.141507,0,0,0.141347,-98.68202,-32.386966)"/>
<path style=" stroke:none;fill-rule:nonzero;fill:url(#linear0);" d="M 6.683594 12.195312 C 6.683594 12.195312 7.917969 11.5 9.617188 11.484375 C 11.3125 11.464844 13.402344 12.179688 13.402344 12.179688 L 13.152344 10.144531 L 12.1875 8.449219 L 10.007812 7.234375 L 7.488281 8.929688 L 6.613281 10.324219 Z M 6.683594 12.195312 "/>
<path style="fill-rule:nonzero;fill:rgb(66.666667%,0%,0%);fill-opacity:1;stroke-width:1;stroke-linecap:butt;stroke-linejoin:miter;stroke:rgb(0%,0%,0%);stroke-opacity:1;stroke-miterlimit:4;" d="M 734.688977 307.202748 C 734.688977 307.202748 735.93119 293.826958 740.237529 289.543389 C 744.516264 285.232184 768.394362 273.873816 768.394362 273.873816 L 769.029271 281.059158 C 769.029271 281.059158 751.224215 290.787005 749.209069 296.480007 C 747.193923 302.173008 745.399615 308.474 745.040754 312.398302 C 744.654288 316.294969 743.770936 335.115037 743.770936 335.115037 L 736.207238 332.213264 L 736.814542 316.433148 L 734.93742 308.971447 Z M 734.688977 307.202748 " transform="matrix(0.141507,0,0,0.141347,-98.68202,-32.386966)"/>
<path style="fill-rule:nonzero;fill:rgb(5.490196%,5.490196%,5.490196%);fill-opacity:1;stroke-width:1;stroke-linecap:butt;stroke-linejoin:miter;stroke:rgb(0%,0%,0%);stroke-opacity:1;stroke-miterlimit:4;" d="M 743.964169 310.933598 L 738.912502 310.684875 C 738.912502 310.684875 729.444077 309.49653 724.972109 311.375773 C 720.472537 313.282652 713.488538 321.490523 713.488538 321.490523 L 714.095843 323.811941 C 714.095843 323.811941 723.205406 326.409719 727.925816 324.50284 C 732.673831 322.623597 736.842147 317.455678 736.842147 317.455678 L 737.090589 315.355347 L 742.970399 315.548798 C 742.970399 315.548798 743.770936 314.913172 744.157402 313.199744 C 744.543869 311.513953 743.964169 310.933598 743.964169 310.933598 Z M 743.964169 310.933598 " transform="matrix(0.141507,0,0,0.141347,-98.68202,-32.386966)"/>
<path style="fill-rule:nonzero;fill:rgb(44.313725%,1.176471%,2.352941%);fill-opacity:1;stroke-width:1;stroke-linecap:butt;stroke-linejoin:miter;stroke:rgb(0%,0%,0%);stroke-opacity:1;stroke-miterlimit:4;" d="M 742.031837 338.099717 C 742.031837 338.099717 737.753103 350.066075 737.228613 356.505246 C 736.676518 362.916782 736.869751 383.809545 736.869751 383.809545 L 745.068359 396.13517 L 747.939251 382.925195 C 747.939251 382.925195 760.609826 408.985877 768.477176 409.345144 C 771.872559 409.51096 768.477176 351.668959 768.477176 351.668959 C 768.477176 351.668959 760.968688 350.950425 760.250964 348.103924 C 759.533241 345.229787 759.367613 345.229787 759.367613 345.229787 C 759.367613 345.229787 753.653432 339.702601 750.423678 339.177518 C 747.221528 338.6248 742.031837 338.099717 742.031837 338.099717 Z M 742.031837 338.099717 " transform="matrix(0.141507,0,0,0.141347,-98.68202,-32.386966)"/>
<path style="fill-rule:nonzero;fill:rgb(10.196078%,9.411765%,10.588235%);fill-opacity:1;stroke-width:1;stroke-linecap:butt;stroke-linejoin:miter;stroke:rgb(0%,0%,0%);stroke-opacity:1;stroke-miterlimit:4;" d="M 745.42722 395.25082 C 745.42722 395.25082 749.540326 398.456588 749.540326 403.817958 C 749.540326 409.179329 751.859124 416.834481 751.859124 416.834481 C 751.859124 416.834481 747.387157 422.914386 747.939251 429.87864 C 748.463741 436.842894 756.49672 446.847101 756.49672 446.847101 L 768.118315 448.809252 L 768.836038 408.460794 C 768.836038 408.460794 760.085336 404.536492 758.456657 400.584554 C 756.855582 396.660252 748.10488 382.731744 748.10488 382.731744 L 745.979315 391.133066 Z M 745.42722 395.25082 " transform="matrix(0.141507,0,0,0.141347,-98.68202,-32.386966)"/>
<path style="fill-rule:nonzero;fill:rgb(53.333333%,54.117647%,52.156863%);fill-opacity:1;stroke-width:1;stroke-linecap:square;stroke-linejoin:miter;stroke:rgb(18.039216%,20.392157%,21.176471%);stroke-opacity:1;stroke-miterlimit:4;" d="M 808.758209 371.608081 C 812.901279 371.599763 816.260889 374.945557 816.270332 379.093171 L 816.251127 404.266624 C 816.260569 408.414238 812.89196 411.779985 808.74889 411.788303 C 804.629846 411.765822 801.270235 408.420028 801.260793 404.272414 L 801.2526 379.102331 C 801.270555 374.951347 804.611767 371.58897 808.758209 371.608081 Z M 808.758209 371.608081 " transform="matrix(0.140448,0.0172528,-0.0172723,0.14029,-98.68202,-32.386966)"/>
<path style="fill-rule:nonzero;fill:rgb(43.921569%,1.960784%,0%);fill-opacity:1;stroke-width:1;stroke-linecap:butt;stroke-linejoin:miter;stroke:rgb(0%,0%,0%);stroke-opacity:1;stroke-miterlimit:4;" d="M 767.925082 449.168519 L 767.925082 503.804752 C 767.925082 503.804752 764.36407 499.88045 762.762996 497.559032 C 761.134316 495.237614 757.407676 492.916196 756.689953 488.27336 C 755.97223 483.630523 746.862667 473.101234 744.185007 467.02133 C 741.507347 460.969061 739.713039 452.927005 741.672976 443.641333 C 743.632912 434.355661 748.463741 434.355661 748.463741 434.355661 L 754.702412 444.359867 L 759.17438 448.284169 Z M 767.925082 449.168519 " transform="matrix(0.141507,0,0,0.141347,-98.68202,-32.386966)"/>
<path style="fill-rule:nonzero;fill:rgb(20%,20%,20%);fill-opacity:1;stroke-width:0.83782;stroke-linecap:square;stroke-linejoin:miter;stroke:rgb(18.039216%,20.392157%,21.176471%);stroke-opacity:1;stroke-miterlimit:4;" d="M -879.269367 62.149551 L -858.324351 62.150824 C -856.761452 62.162137 -855.492879 63.443364 -855.478948 65.016192 C -855.491283 66.580531 -856.772176 67.851113 -858.335076 67.8398 L -879.280091 67.838527 C -880.851488 67.85351 -882.120061 66.572284 -882.107725 65.007944 C -882.121657 63.435117 -880.840764 62.164535 -879.269367 62.149551 Z M -879.269367 62.149551 " transform="matrix(-0.134651,-0.0434627,-0.0435118,0.134499,-98.68202,-32.386966)"/>
<path style="fill-rule:nonzero;fill:rgb(66.666667%,0%,0%);fill-opacity:1;stroke-width:1;stroke-linecap:butt;stroke-linejoin:miter;stroke:rgb(0%,0%,0%);stroke-opacity:1;stroke-miterlimit:4;" d="M 802.458609 307.202748 C 802.458609 307.202748 801.188791 293.826958 796.910057 289.543389 C 792.603717 285.232184 768.6152 273.873816 768.6152 273.873816 L 769.001666 281.446061 C 769.001666 281.446061 785.923371 290.787005 787.938517 296.480007 C 789.953663 302.173008 791.720366 308.474 792.106832 312.398302 C 792.493298 316.294969 793.37665 335.115037 793.37665 335.115037 L 800.940348 332.213264 L 800.305439 316.433148 L 802.210166 308.971447 Z M 802.458609 307.202748 " transform="matrix(0.141507,0,0,0.141347,-98.68202,-32.386966)"/>
<path style="fill-rule:nonzero;fill:rgb(5.490196%,5.490196%,5.490196%);fill-opacity:1;stroke-width:1;stroke-linecap:butt;stroke-linejoin:miter;stroke:rgb(0%,0%,0%);stroke-opacity:1;stroke-miterlimit:4;" d="M 793.183417 310.933598 L 798.235084 310.684875 C 798.235084 310.684875 807.703509 309.49653 812.175477 311.375773 C 816.675049 313.282652 823.686652 321.490523 823.686652 321.490523 L 823.051743 323.811941 C 823.051743 323.811941 813.94218 326.409719 809.22177 324.50284 C 804.473755 322.623597 800.305439 317.455678 800.305439 317.455678 L 800.056997 315.355347 L 794.177187 315.548798 C 794.177187 315.548798 793.37665 314.913172 792.990184 313.199744 C 792.603717 311.513953 793.183417 310.933598 793.183417 310.933598 Z M 793.183417 310.933598 " transform="matrix(0.141507,0,0,0.141347,-98.68202,-32.386966)"/>
<path style="fill-rule:nonzero;fill:rgb(44.313725%,1.176471%,2.352941%);fill-opacity:1;stroke-width:1;stroke-linecap:butt;stroke-linejoin:miter;stroke:rgb(0%,0%,0%);stroke-opacity:1;stroke-miterlimit:4;" d="M 795.088144 338.099717 C 795.088144 338.099717 799.394483 350.066075 799.918973 356.505246 C 800.443463 362.916782 800.277835 383.809545 800.277835 383.809545 L 792.051623 396.13517 L 789.208335 382.925195 C 789.208335 382.925195 779.73991 409.704411 769.746994 410.063678 C 766.324007 410.174222 768.14592 351.558415 768.14592 351.558415 C 768.14592 351.558415 776.178898 350.950425 776.896621 348.103924 C 777.58674 345.229787 777.779973 345.229787 777.779973 345.229787 C 777.779973 345.229787 783.494154 339.702601 786.696303 339.177518 C 789.926058 338.6248 795.088144 338.099717 795.088144 338.099717 Z M 795.088144 338.099717 " transform="matrix(0.141507,0,0,0.141347,-98.68202,-32.386966)"/>
<path style="fill-rule:nonzero;fill:rgb(10.196078%,9.411765%,10.588235%);fill-opacity:1;stroke-width:1;stroke-linecap:butt;stroke-linejoin:miter;stroke:rgb(0%,0%,0%);stroke-opacity:1;stroke-miterlimit:4;" d="M 791.720366 395.25082 C 791.720366 395.25082 787.60726 398.456588 787.60726 403.817958 C 787.60726 409.179329 785.288462 416.834481 785.288462 416.834481 C 785.288462 416.834481 789.732825 422.914386 789.208335 429.87864 C 788.683845 436.842894 780.650866 446.847101 780.650866 446.847101 L 769.029271 448.809252 L 769.305319 408.543702 C 769.305319 408.543702 777.06225 404.536492 778.663325 400.584554 C 780.292004 396.660252 789.042706 382.731744 789.042706 382.731744 L 791.168271 391.133066 Z M 791.720366 395.25082 " transform="matrix(0.141507,0,0,0.141347,-98.68202,-32.386966)"/>
<path style="fill-rule:nonzero;fill:rgb(53.333333%,54.117647%,52.156863%);fill-opacity:1;stroke-width:1;stroke-linecap:square;stroke-linejoin:miter;stroke:rgb(18.039216%,20.392157%,21.176471%);stroke-opacity:1;stroke-miterlimit:4;" d="M -716.81859 559.196443 C -712.699534 559.218922 -709.339914 562.564724 -709.330469 566.712349 L -709.322265 591.8825 C -709.340219 596.033495 -712.681438 599.395883 -716.827892 599.376774 C -720.970972 599.385094 -724.330593 596.039292 -724.340038 591.891667 L -724.320843 566.718146 C -724.330288 562.570521 -720.961671 559.204763 -716.81859 559.196443 Z M -716.81859 559.196443 " transform="matrix(-0.140448,0.0172528,0.0172723,0.14029,-98.68202,-32.386966)"/>
<path style="fill-rule:nonzero;fill:rgb(43.921569%,1.960784%,0%);fill-opacity:1;stroke-width:1;stroke-linecap:butt;stroke-linejoin:miter;stroke:rgb(0%,0%,0%);stroke-opacity:1;stroke-miterlimit:4;" d="M 767.593825 449.168519 L 767.952686 503.804752 C 767.952686 503.804752 772.783516 499.88045 774.38459 497.559032 C 775.985665 495.237614 779.73991 492.916196 780.457633 488.27336 C 781.175356 483.630523 790.284919 473.101234 792.962579 467.02133 C 795.640239 460.969061 797.434547 452.927005 795.447005 443.641333 C 793.487069 434.355661 788.683845 434.355661 788.683845 434.355661 L 782.417569 444.359867 L 777.945602 448.284169 Z M 767.593825 449.168519 " transform="matrix(0.141507,0,0,0.141347,-98.68202,-32.386966)"/>
<path style=" stroke:none;fill-rule:nonzero;fill:rgb(83.137255%,0%,0%);fill-opacity:1;" d="M 12.96875 29.714844 C 12.988281 30.488281 12.640625 31.246094 12.640625 31.960938 C 12.640625 33.246094 11.375 34.359375 11.375 35.671875 C 11.375 36.410156 10.492188 36.640625 10.492188 37.183594 C 10.492188 37.34375 10.339844 37.800781 10.339844 37.640625 C 10.339844 37.375 15.179688 31.132812 12.96875 29.714844 Z M 12.96875 29.714844 "/>
<path style=" stroke:none;fill-rule:nonzero;fill:rgb(66.666667%,0%,0%);fill-opacity:1;" d="M 7.5 19.328125 C 7.578125 19.617188 7.75 19.878906 7.839844 20.171875 C 7.988281 20.644531 8.277344 21.085938 8.398438 21.5625 C 8.921875 23.652344 7.453125 20.503906 7.097656 20.324219 C 7.085938 20.320312 6.375 21.953125 6.402344 21.953125 C 6.550781 21.953125 6.273438 21.160156 6.25 21.09375 C 6.0625 20.539062 6.167969 19.824219 6.25 19.265625 C 6.300781 18.902344 6.089844 16.171875 6.488281 16.171875 C 7.300781 16.171875 6.722656 19.035156 7.5 19.328125 Z M 7.5 19.328125 "/>
<path style=" stroke:none;fill-rule:nonzero;fill:rgb(100%,16.470588%,16.470588%);fill-opacity:1;" d="M 12.488281 19.328125 C 12.410156 19.617188 12.238281 19.878906 12.144531 20.171875 C 12 20.644531 11.710938 21.085938 11.589844 21.5625 C 11.066406 23.652344 12.535156 20.503906 12.890625 20.324219 C 12.898438 20.320312 13.609375 21.953125 13.585938 21.953125 C 13.4375 21.953125 13.714844 21.160156 13.738281 21.09375 C 13.921875 20.539062 13.816406 19.824219 13.738281 19.265625 C 13.6875 18.902344 13.898438 16.171875 13.496094 16.171875 C 12.6875 16.171875 13.261719 19.035156 12.488281 19.328125 Z M 12.488281 19.328125 "/>
<path style="fill-rule:nonzero;fill:rgb(20%,20%,20%);fill-opacity:1;stroke-width:1;stroke-linecap:square;stroke-linejoin:miter;stroke:rgb(18.039216%,20.392157%,21.176471%);stroke-opacity:1;stroke-miterlimit:4;" d="M 721.852774 334.700498 C 725.579414 334.700498 728.615935 338.044445 728.615935 342.189835 L 728.615935 384.99789 C 728.615935 389.143279 725.579414 392.514863 721.852774 392.514863 C 718.126134 392.514863 715.117218 389.143279 715.117218 384.99789 L 715.117218 342.189835 C 715.117218 338.044445 718.126134 334.700498 721.852774 334.700498 Z M 721.852774 334.700498 " transform="matrix(0.141507,0,0,0.141347,-98.68202,-32.386966)"/>
<path style=" stroke:none;fill-rule:nonzero;fill:rgb(66.666667%,0%,0%);fill-opacity:1;" d="M 7.101562 29.789062 C 7.082031 30.5625 7.429688 31.320312 7.429688 32.035156 C 7.429688 33.320312 8.695312 34.433594 8.695312 35.746094 C 8.695312 36.484375 9.578125 36.714844 9.578125 37.261719 C 9.578125 37.417969 9.730469 37.875 9.730469 37.714844 C 9.730469 37.449219 4.890625 31.210938 7.101562 29.789062 Z M 7.101562 29.789062 "/>
<path style="fill-rule:nonzero;fill:rgb(10.196078%,10.196078%,10.196078%);fill-opacity:1;stroke-width:1.0214;stroke-linecap:square;stroke-linejoin:miter;stroke:rgb(18.039216%,20.392157%,21.176471%);stroke-opacity:1;stroke-miterlimit:4;" d="M -447.881916 728.298863 L -446.55431 728.282322 C -437.955989 728.284376 -430.988721 735.253999 -430.984724 743.843483 L -430.989075 767.512452 C -430.985078 776.101936 -437.951553 783.052084 -446.549874 783.050031 L -447.87748 783.066571 C -456.475801 783.064518 -463.443069 776.094895 -463.447066 767.50541 L -463.44359 743.864035 C -463.446712 735.246958 -456.480237 728.29681 -447.881916 728.298863 Z M -447.881916 728.298863 " transform="matrix(-0.00412251,-0.141287,0.141436,-0.00448197,-98.68202,-32.386966)"/>
<path style="fill-rule:nonzero;fill:rgb(92.941176%,83.137255%,0%);fill-opacity:1;stroke-width:1;stroke-linecap:square;stroke-linejoin:miter;stroke:rgb(18.039216%,20.392157%,21.176471%);stroke-opacity:1;stroke-miterlimit:4;" d="M 1311.201631 370.08041 C 1311.201631 383.622015 1302.947815 394.59348 1292.761666 394.59348 C 1282.575518 394.59348 1274.321701 383.622015 1274.321701 370.08041 C 1274.321701 356.56644 1282.575518 345.594976 1292.761666 345.594976 C 1302.947815 345.594976 1311.201631 356.56644 1311.201631 370.08041 Z M 1311.201631 370.08041 " transform="matrix(0.141507,0,0,0.141347,-172.797467,-30.04796)"/>
<path style="fill-rule:nonzero;fill:rgb(20%,20%,20%);fill-opacity:1;stroke-width:1;stroke-linecap:square;stroke-linejoin:miter;stroke:rgb(18.039216%,20.392157%,21.176471%);stroke-opacity:1;stroke-miterlimit:4;" d="M 202.431553 792.358671 L 202.764101 792.351981 C 206.907695 792.355789 210.272941 795.710813 210.264467 799.854047 L 210.267896 830.227268 C 210.279715 834.351741 206.920603 837.720469 202.777009 837.716661 L 202.444462 837.723351 C 198.300868 837.719543 194.935622 834.364518 194.944096 830.221284 L 194.940666 799.848064 C 194.928848 795.723591 198.28796 792.354863 202.431553 792.358671 Z M 202.431553 792.358671 " transform="matrix(0.096062,-0.103787,0.103905,0.0959536,-98.68202,-32.386966)"/>
<path style="fill-rule:nonzero;fill:rgb(20%,20%,20%);fill-opacity:1;stroke-width:1;stroke-linecap:square;stroke-linejoin:miter;stroke:rgb(18.039216%,20.392157%,21.176471%);stroke-opacity:1;stroke-miterlimit:4;" d="M -813.390085 334.341231 C -809.663445 334.341231 -806.654529 337.685178 -806.654529 341.830568 L -806.654529 384.638623 C -806.654529 388.784012 -809.663445 392.155596 -813.390085 392.155596 C -817.116725 392.155596 -820.125641 388.784012 -820.125641 384.638623 L -820.125641 341.830568 C -820.125641 337.685178 -817.116725 334.341231 -813.390085 334.341231 Z M -813.390085 334.341231 " transform="matrix(-0.141507,0,0,0.141347,-98.68202,-32.386966)"/>
<path style="fill-rule:nonzero;fill:rgb(20%,20%,20%);fill-opacity:1;stroke-width:1;stroke-linecap:square;stroke-linejoin:miter;stroke:rgb(18.039216%,20.392157%,21.176471%);stroke-opacity:1;stroke-miterlimit:4;" d="M -839.483584 -335.197887 L -839.171329 -335.185815 C -835.027745 -335.181987 -831.662522 -331.826954 -831.671016 -327.683729 L -831.647439 -297.329337 C -831.655933 -293.186112 -835.033793 -289.837677 -839.158638 -289.821236 L -839.491185 -289.814547 C -843.634769 -289.818375 -846.979699 -293.192169 -846.991498 -297.316633 L -846.994782 -327.689786 C -846.986289 -331.833011 -843.627168 -335.201715 -839.483584 -335.197887 Z M -839.483584 -335.197887 " transform="matrix(-0.0960617,-0.103788,-0.103905,0.0959533,-98.68202,-32.386966)"/>
<path style="fill-rule:nonzero;fill:rgb(18.039216%,20.392157%,21.176471%);fill-opacity:1;stroke-width:1;stroke-linecap:butt;stroke-linejoin:miter;stroke:rgb(0%,0%,0%);stroke-opacity:1;stroke-miterlimit:4;" d="M 755.337321 378.917985 C 755.337321 378.917985 759.781684 369.825765 769.112085 370.102124 C 781.120146 370.406119 783.770201 377.923092 783.770201 377.923092 L 785.012414 388.397109 C 785.012414 388.397109 781.479008 378.420539 770.76837 378.917985 C 760.030127 379.443068 754.840436 388.286566 754.840436 388.286566 Z M 755.337321 378.917985 " transform="matrix(0.141507,0,0,0.141347,-98.68202,-32.386966)"/>
<path style="fill-rule:nonzero;fill:rgb(20%,20%,20%);fill-opacity:1;stroke-width:1;stroke-linecap:butt;stroke-linejoin:miter;stroke:rgb(0%,0%,0%);stroke-opacity:1;stroke-miterlimit:4;" d="M 743.605307 329.311492 C 743.605307 329.311492 758.373842 334.120143 758.760309 334.61759 C 759.11917 335.115037 758.622285 337.381183 760.885873 337.906266 C 763.177067 338.403712 764.695327 335.999387 766.820892 335.999387 C 768.974062 335.999387 771.513698 338.514256 774.163752 338.154989 C 776.813807 337.768086 777.200274 335.115037 777.200274 335.115037 L 793.211022 330.195841 L 792.603717 325.912272 L 777.200274 331.715817 C 777.200274 331.715817 774.660638 330.693288 771.872559 330.693288 C 769.112085 330.693288 767.455801 332.461988 767.455801 332.461988 C 767.455801 332.461988 765.330236 331.080191 763.425509 330.582744 C 761.520782 330.057662 758.870728 331.826361 758.870728 331.826361 L 744.240216 325.525369 Z M 743.605307 329.311492 " transform="matrix(0.141507,0,0,0.141347,-98.68202,-32.386966)"/>
<path style="fill-rule:nonzero;fill:rgb(20%,20%,20%);fill-opacity:1;stroke-width:1;stroke-linecap:square;stroke-linejoin:miter;stroke:rgb(0%,0%,0%);stroke-opacity:1;stroke-miterlimit:4;" d="M 1288.301674 328.165506 C 1288.286611 331.149019 1284.542406 333.575311 1279.908055 333.580431 C 1275.273705 333.58555 1271.516738 331.145157 1271.505171 328.168916 C 1271.512954 325.158744 1275.257159 322.732452 1279.89151 322.727332 C 1284.52586 322.722213 1288.309457 325.155334 1288.301674 328.165506 Z M 1288.301674 328.165506 " transform="matrix(0.136507,0.0372378,-0.0372799,0.136353,-153.897858,-79.40739)"/>
<path style="fill-rule:nonzero;fill:rgb(20%,20%,20%);fill-opacity:1;stroke-width:1;stroke-linecap:square;stroke-linejoin:miter;stroke:rgb(0%,0%,0%);stroke-opacity:1;stroke-miterlimit:4;" d="M 1288.298978 328.166242 C 1288.283914 331.149755 1284.539709 333.576047 1279.905358 333.581167 C 1275.271008 333.586287 1271.514041 331.145893 1271.502475 328.169653 C 1271.510257 325.159481 1275.254463 322.733188 1279.888813 322.728069 C 1284.549793 322.715676 1288.30676 325.15607 1288.298978 328.166242 Z M 1288.298978 328.166242 " transform="matrix(-0.136507,0.0372378,0.0372799,0.136353,174.057619,-79.40739)"/>
</g>
</svg>
