<?xml version="1.0" encoding="UTF-8"?>
<svg xmlns="http://www.w3.org/2000/svg" xmlns:xlink="http://www.w3.org/1999/xlink" width="20px" height="44px" viewBox="0 0 20 43" version="1.1">
<defs>
<radialGradient id="radial0" gradientUnits="userSpaceOnUse" cx="657.76" cy="319.37" fx="657.76" fy="319.37" r="1269.3" gradientTransform="matrix(0.65803,0,0,1.5197,-252.14,-111.82)">
<stop offset="0" style="stop-color:rgb(97.254902%,80.784314%,0%);stop-opacity:1;"/>
<stop offset="1" style="stop-color:rgb(71.764706%,59.215686%,0%);stop-opacity:1;"/>
</radialGradient>
<radialGradient id="radial1" gradientUnits="userSpaceOnUse" cx="897.24" cy="153.65" fx="897.24" fy="153.65" r="15.849" gradientTransform="matrix(0.021765,0,0,0.197928,-19.091183,-8.850474)">
<stop offset="0" style="stop-color:rgb(97.254902%,80.784314%,0%);stop-opacity:1;"/>
<stop offset="1" style="stop-color:rgb(71.764706%,59.215686%,0%);stop-opacity:1;"/>
</radialGradient>
<radialGradient id="radial2" gradientUnits="userSpaceOnUse" cx="897.24" cy="153.65" fx="897.24" fy="153.65" r="15.849" gradientTransform="matrix(-0.021765,0,0,0.197928,39.176381,-9.122846)">
<stop offset="0" style="stop-color:rgb(97.254902%,80.784314%,0%);stop-opacity:1;"/>
<stop offset="1" style="stop-color:rgb(71.764706%,59.215686%,0%);stop-opacity:1;"/>
</radialGradient>
<radialGradient id="radial3" gradientUnits="userSpaceOnUse" cx="294.43" cy="598.63" fx="294.43" fy="598.63" r="91.234" gradientTransform="matrix(0.0837557,0,0,0.0404195,-14.694304,-7.991956)">
<stop offset="0" style="stop-color:rgb(97.254902%,80.784314%,0%);stop-opacity:1;"/>
<stop offset="1" style="stop-color:rgb(71.764706%,59.215686%,0%);stop-opacity:1;"/>
</radialGradient>
<radialGradient id="radial4" gradientUnits="userSpaceOnUse" cx="378.79" cy="819.9" fx="378.79" fy="819.9" r="115.39" gradientTransform="matrix(0.0651124,0,0,0.051084,-15.198809,-8.037714)">
<stop offset="0" style="stop-color:rgb(97.254902%,80.784314%,0%);stop-opacity:1;"/>
<stop offset="1" style="stop-color:rgb(71.764706%,59.215686%,0%);stop-opacity:1;"/>
</radialGradient>
</defs>
<g id="surface1">
<path style=" stroke:none;fill-rule:evenodd;fill:rgb(37.647059%,34.509804%,35.294118%);fill-opacity:1;" d="M 1.394531 33.941406 L 1.984375 33.941406 C 2.25 33.941406 2.460938 34.148438 2.460938 34.40625 L 2.460938 37.757812 C 2.460938 38.015625 2.25 38.226562 1.984375 38.226562 L 1.394531 38.226562 C 1.128906 38.226562 0.914062 38.015625 0.914062 37.757812 L 0.914062 34.40625 C 0.914062 34.148438 1.128906 33.941406 1.394531 33.941406 Z M 1.394531 33.941406 "/>
<path style=" stroke:none;fill-rule:evenodd;fill:rgb(37.647059%,34.509804%,35.294118%);fill-opacity:1;" d="M 17.820312 33.394531 L 18.410156 33.394531 C 18.675781 33.394531 18.890625 33.605469 18.890625 33.863281 L 18.890625 37.214844 C 18.890625 37.472656 18.675781 37.683594 18.410156 37.683594 L 17.820312 37.683594 C 17.558594 37.683594 17.34375 37.472656 17.34375 37.214844 L 17.34375 33.863281 C 17.34375 33.605469 17.558594 33.394531 17.820312 33.394531 Z M 17.820312 33.394531 "/>
<path style=" stroke:none;fill-rule:nonzero;fill:rgb(29.019608%,0%,67.843137%);fill-opacity:1;" d="M 11.480469 3.644531 C 11.785156 3.664062 12.101562 3.667969 12.402344 3.628906 C 12.601562 3.589844 13.042969 3.421875 12.832031 3.15625 C 12.539062 2.878906 12.019531 2.921875 11.652344 2.953125 L 11.625 2.625 C 12.132812 2.585938 12.746094 2.574219 13.117188 2.972656 C 13.453125 3.488281 12.929688 3.863281 12.449219 3.953125 C 12.125 3.992188 11.804688 3.972656 11.480469 3.992188 Z M 11.480469 3.644531 "/>
<path style=" stroke:none;fill-rule:nonzero;fill:rgb(29.019608%,0%,67.843137%);fill-opacity:1;" d="M 11.480469 1.921875 C 11.785156 1.90625 12.101562 1.902344 12.402344 1.941406 C 12.601562 1.980469 13.042969 2.148438 12.832031 2.414062 C 12.539062 2.6875 12.019531 2.648438 11.652344 2.617188 L 11.625 2.941406 C 12.132812 2.984375 12.746094 2.996094 13.117188 2.597656 C 13.453125 2.078125 12.929688 1.703125 12.449219 1.617188 C 12.125 1.578125 11.804688 1.597656 11.480469 1.578125 Z M 11.480469 1.921875 "/>
<path style=" stroke:none;fill-rule:nonzero;fill:rgb(29.019608%,0%,67.843137%);fill-opacity:1;" d="M 10.292969 2.671875 C 10.40625 2.683594 10.527344 2.675781 10.640625 2.679688 C 10.738281 2.679688 11.066406 2.726562 11.125 2.625 C 11.148438 2.550781 11.113281 2.464844 11.046875 2.425781 C 10.894531 2.347656 10.6875 2.386719 10.523438 2.394531 C 10.320312 2.402344 10.046875 2.425781 9.984375 2.183594 C 9.96875 1.988281 10.089844 1.800781 10.246094 1.6875 C 10.453125 1.5625 10.6875 1.585938 10.917969 1.613281 C 11.054688 1.632812 11.191406 1.652344 11.328125 1.667969 L 11.304688 1.875 C 11.164062 1.859375 11.027344 1.835938 10.890625 1.820312 C 10.722656 1.800781 10.53125 1.769531 10.375 1.855469 C 10.289062 1.917969 10.203125 2.03125 10.203125 2.140625 C 10.199219 2.222656 10.464844 2.191406 10.511719 2.1875 C 10.734375 2.175781 10.976562 2.140625 11.175781 2.253906 C 11.339844 2.375 11.410156 2.601562 11.285156 2.769531 C 11.121094 2.921875 10.851562 2.882812 10.640625 2.886719 C 10.527344 2.886719 10.40625 2.878906 10.292969 2.890625 Z M 10.292969 2.671875 "/>
<path style=" stroke:none;fill-rule:nonzero;fill:rgb(29.019608%,0%,67.843137%);fill-opacity:1;" d="M 10.113281 2.886719 C 9.980469 2.871094 9.84375 2.878906 9.707031 2.878906 C 9.457031 2.875 9.203125 2.878906 8.949219 2.878906 C 8.898438 2.878906 8.847656 2.878906 8.800781 2.882812 L 8.800781 2.695312 C 8.847656 2.695312 8.898438 2.695312 8.949219 2.695312 C 9.203125 2.699219 9.457031 2.699219 9.707031 2.699219 C 9.84375 2.699219 9.980469 2.703125 10.113281 2.691406 Z M 10.113281 2.886719 "/>
<path style=" stroke:none;fill-rule:nonzero;fill:rgb(29.019608%,0%,67.843137%);fill-opacity:1;" d="M 9.371094 2.75 C 9.378906 2.675781 9.375 2.601562 9.375 2.527344 C 9.375 2.386719 9.375 2.242188 9.375 2.097656 C 9.375 2 9.375 1.90625 9.371094 1.8125 C 9.371094 1.753906 9.375 1.695312 9.375 1.640625 L 9.589844 1.640625 C 9.589844 1.695312 9.589844 1.753906 9.589844 1.8125 C 9.589844 1.90625 9.585938 2 9.585938 2.097656 C 9.585938 2.242188 9.585938 2.386719 9.585938 2.527344 C 9.585938 2.601562 9.582031 2.675781 9.59375 2.75 Z M 9.371094 2.75 "/>
<path style=" stroke:none;fill-rule:nonzero;fill:rgb(29.019608%,0%,67.843137%);fill-opacity:1;" d="M 8.539062 2.847656 C 8.550781 2.753906 8.546875 2.65625 8.546875 2.5625 C 8.550781 2.328125 8.550781 2.09375 8.546875 1.859375 C 8.546875 1.78125 8.542969 1.703125 8.542969 1.628906 L 8.726562 1.628906 C 8.722656 1.703125 8.722656 1.78125 8.722656 1.859375 C 8.71875 2.09375 8.71875 2.328125 8.722656 2.5625 C 8.722656 2.65625 8.71875 2.753906 8.730469 2.847656 Z M 8.539062 2.847656 "/>
<path style=" stroke:none;fill-rule:nonzero;fill:rgb(29.019608%,0%,67.843137%);fill-opacity:1;" d="M 8.652344 2.902344 C 8.574219 2.894531 8.492188 2.898438 8.414062 2.898438 C 8.246094 2.890625 8.097656 2.839844 8.074219 2.65625 C 8.070312 2.472656 8.175781 2.359375 8.359375 2.328125 C 8.445312 2.316406 8.527344 2.320312 8.613281 2.328125 L 8.59375 2.5 C 8.527344 2.492188 8.460938 2.488281 8.390625 2.496094 C 8.300781 2.515625 8.257812 2.546875 8.257812 2.636719 C 8.265625 2.722656 8.347656 2.71875 8.417969 2.722656 C 8.496094 2.722656 8.578125 2.726562 8.652344 2.71875 Z M 8.652344 2.902344 "/>
<path style=" stroke:none;fill-rule:nonzero;fill:rgb(29.019608%,0%,67.843137%);fill-opacity:1;" d="M 8.578125 2.410156 C 8.511719 2.402344 8.4375 2.40625 8.371094 2.40625 C 8.222656 2.402344 8.058594 2.414062 7.9375 2.320312 C 7.835938 2.214844 7.871094 2.082031 7.910156 1.957031 C 7.933594 1.871094 7.957031 1.785156 7.960938 1.695312 C 7.960938 1.679688 7.960938 1.660156 7.960938 1.644531 L 8.144531 1.640625 C 8.144531 1.660156 8.144531 1.679688 8.144531 1.703125 C 8.140625 1.808594 8.113281 1.90625 8.082031 2.007812 C 8.070312 2.050781 8.03125 2.136719 8.054688 2.183594 C 8.117188 2.253906 8.289062 2.230469 8.371094 2.230469 C 8.4375 2.226562 8.511719 2.230469 8.578125 2.222656 Z M 8.578125 2.410156 "/>
<path style=" stroke:none;fill-rule:evenodd;fill:rgb(29.019608%,0%,67.843137%);fill-opacity:1;" d="M 8.726562 2.902344 L 8.597656 2.902344 L 8.597656 2.738281 L 8.726562 2.738281 Z M 8.726562 2.902344 "/>
<path style=" stroke:none;fill-rule:evenodd;fill:rgb(29.019608%,0%,67.843137%);fill-opacity:1;" d="M 6.539062 2.253906 C 6.539062 1.875 6.828125 1.566406 7.183594 1.566406 C 7.539062 1.566406 7.828125 1.875 7.828125 2.253906 C 7.828125 2.632812 7.539062 2.9375 7.183594 2.9375 C 6.828125 2.9375 6.539062 2.632812 6.539062 2.253906 Z M 6.746094 2.269531 C 6.746094 2.011719 6.941406 1.800781 7.183594 1.800781 C 7.425781 1.800781 7.625 2.011719 7.625 2.269531 C 7.625 2.527344 7.425781 2.738281 7.183594 2.738281 C 6.941406 2.738281 6.746094 2.527344 6.746094 2.269531 Z M 6.746094 2.269531 "/>
<path style=" stroke:none;fill-rule:evenodd;fill:rgb(37.647059%,34.509804%,35.294118%);fill-opacity:1;" d="M 18.238281 5.339844 L 18.828125 5.339844 C 19.09375 5.339844 19.308594 5.550781 19.308594 5.808594 L 19.308594 9.160156 C 19.308594 9.417969 19.09375 9.628906 18.828125 9.628906 L 18.238281 9.628906 C 17.972656 9.628906 17.761719 9.417969 17.761719 9.160156 L 17.761719 5.808594 C 17.761719 5.550781 17.972656 5.339844 18.238281 5.339844 Z M 18.238281 5.339844 "/>
<path style=" stroke:none;fill-rule:evenodd;fill:rgb(37.647059%,34.509804%,35.294118%);fill-opacity:1;" d="M 0.96875 5.507812 L 1.558594 5.507812 C 1.820312 5.507812 2.035156 5.71875 2.035156 5.976562 L 2.035156 9.328125 C 2.035156 9.585938 1.820312 9.796875 1.558594 9.796875 L 0.96875 9.796875 C 0.703125 9.796875 0.488281 9.585938 0.488281 9.328125 L 0.488281 5.976562 C 0.488281 5.71875 0.703125 5.507812 0.96875 5.507812 Z M 0.96875 5.507812 "/>
<path style="fill-rule:evenodd;fill:url(#radial0);stroke-width:1.25;stroke-linecap:butt;stroke-linejoin:miter;stroke:rgb(0%,0%,0%);stroke-opacity:1;stroke-miterlimit:4;" d="M 178.723508 782.978001 C 65.64303 785.34436 48.316182 765.051039 31.620677 761.752478 C 14.925173 722.958532 11.768459 395.970741 21.799792 369.223714 C 29.235605 308.702289 16.8192 298.66319 13.101294 225.736308 C 5.946078 140.547384 22.922179 187.874564 8.611746 101.251483 C 30.287843 11.043009 -10.468831 9.178605 177.180226 0.645371 C 349.396463 3.01173 325.124847 11.043009 346.800944 101.251483 C 332.490511 187.874564 349.466613 140.547384 342.311396 225.736308 C 338.59349 298.66319 326.177085 308.702289 333.612898 369.223714 C 343.644231 395.970741 340.487518 722.958532 323.792013 761.752478 C 297.626369 776.882834 228.318979 782.978001 178.723508 782.978001 Z M 178.723508 782.978001 " transform="matrix(0.0556849,0,0,0.0544745,0.00873702,0)"/>
<path style=" stroke:none;fill-rule:evenodd;fill:url(#radial1);" d="M 2.320312 15.355469 C 2.320312 15.355469 3.519531 19.847656 3.519531 19.847656 C 3.519531 19.847656 3.519531 28.265625 3.347656 28.40625 C 3.179688 28.546875 1.808594 30.933594 1.808594 30.933594 C 1.808594 30.933594 2.152344 15.636719 2.320312 15.355469 Z M 2.320312 15.355469 "/>
<path style=" stroke:none;fill-rule:evenodd;fill:url(#radial2);" d="M 17.761719 15.082031 C 17.761719 15.082031 16.5625 19.574219 16.5625 19.574219 C 16.5625 19.574219 16.5625 27.996094 16.734375 28.132812 C 16.90625 28.273438 18.277344 30.660156 18.277344 30.660156 C 18.277344 30.660156 17.933594 15.363281 17.761719 15.082031 Z M 17.761719 15.082031 "/>
<path style="fill-rule:evenodd;fill:rgb(96.862745%,80.784314%,0%);fill-opacity:1;stroke-width:1.25;stroke-linecap:butt;stroke-linejoin:miter;stroke:rgb(0%,0%,0%);stroke-opacity:0.458824;stroke-miterlimit:4;" d="M 37.232612 44.530574 C 25.517699 63.174615 26.359489 240.723249 45.019171 254.706279 C 63.04751 239.862754 167.499639 226.094847 187.422007 227.385589 C 207.69512 225.879724 287.103992 235.416868 311.445757 250.045269 C 318.03978 252.196504 331.227826 44.530574 312.568144 30.547544 C 254.204026 14.198154 60.52214 14.198154 37.232612 44.530574 Z M 37.232612 44.530574 " transform="matrix(0.0556849,0,0,0.0544745,0.00873702,0)"/>
<path style=" stroke:none;fill-rule:evenodd;fill:url(#radial3);" d="M 2.335938 14.019531 C 2.335938 14.019531 5.984375 12.554688 10.054688 12.519531 C 13.71875 12.484375 15.375 13.042969 17.605469 13.882812 C 17.335938 16.539062 17.066406 19.054688 16.390625 19.890625 C 10.171875 18.355469 9.765625 18.355469 3.550781 19.890625 C 3.414062 19.054688 2.199219 14.160156 2.335938 14.019531 Z M 2.335938 14.019531 "/>
<path style="fill-rule:evenodd;fill:rgb(0%,0%,0%);fill-opacity:0.705882;stroke-width:1.25;stroke-linecap:butt;stroke-linejoin:miter;stroke:rgb(0%,0%,0%);stroke-opacity:1;stroke-miterlimit:4;" d="M 45.510215 260.227783 C 45.510215 260.227783 109.27582 235.416868 180.477238 234.771497 C 244.523439 234.197834 273.495051 243.66327 312.427846 257.861424 C 307.72785 302.750538 303.027855 345.273292 291.172644 359.399738 C 182.511564 333.441497 175.426497 333.441497 66.765417 359.399738 C 64.450494 345.273292 43.125143 262.594142 45.510215 260.227783 Z M 45.510215 260.227783 " transform="matrix(0.0556849,0,0,0.0544745,0.00873702,0)"/>
<path style=" stroke:none;fill-rule:evenodd;fill:url(#radial4);" d="M 4.222656 28.949219 C 3.535156 32.183594 2.984375 38.382812 2.984375 38.382812 C 4.085938 39.324219 9.734375 39.730469 9.871094 39.730469 C 10.285156 39.730469 15.933594 39.324219 16.898438 37.976562 C 16.898438 37.167969 16.347656 31.375 15.796875 28.816406 C 10.972656 29.488281 4.5 29.21875 4.222656 28.949219 Z M 4.222656 28.949219 "/>
<path style="fill-rule:evenodd;fill:rgb(0%,0%,0%);fill-opacity:0.784314;stroke-width:1.25;stroke-linecap:butt;stroke-linejoin:miter;stroke:rgb(0%,0%,0%);stroke-opacity:1;stroke-miterlimit:4;" d="M 80.935551 536.589833 C 69.150489 593.310741 59.68035 701.948132 59.68035 701.948132 C 78.550479 718.512645 175.426497 725.540015 177.811569 725.540015 C 184.896636 725.540015 281.772654 718.512645 298.257711 694.849055 C 298.257711 680.722609 288.857721 579.112587 279.387582 534.223474 C 196.681698 546.055269 85.705695 541.322551 80.935551 536.589833 Z M 80.935551 536.589833 " transform="matrix(0.0556849,0,0,0.0544745,0.00873702,0)"/>
<path style="fill-rule:evenodd;fill:rgb(96.862745%,80.784314%,0%);fill-opacity:1;stroke-width:1.25;stroke-linecap:butt;stroke-linejoin:miter;stroke:rgb(0%,0%,0%);stroke-opacity:0.552941;stroke-miterlimit:4;" d="M 321.897985 279.086948 L 350.238254 281.453307 C 350.238254 281.453307 364.408388 295.651461 354.938249 302.67883 C 345.538259 309.777907 321.897985 300.384179 321.897985 300.384179 Z M 321.897985 279.086948 " transform="matrix(0.0556849,0,0,0.0544745,0.00873702,0)"/>
<path style="fill-rule:evenodd;fill:rgb(96.862745%,80.784314%,0%);fill-opacity:1;stroke-width:1.25;stroke-linecap:butt;stroke-linejoin:miter;stroke:rgb(0%,0%,0%);stroke-opacity:0.54902;stroke-miterlimit:4;" d="M 36.952015 283.819666 L 8.611746 286.186025 C 8.611746 286.186025 -5.558388 300.384179 3.841602 307.411548 C 13.311741 314.510625 36.952015 305.045189 36.952015 305.045189 Z M 36.952015 283.819666 " transform="matrix(0.0556849,0,0,0.0544745,0.00873702,0)"/>
<path style="fill-rule:evenodd;fill:rgb(18.039216%,52.941176%,81.176471%);fill-opacity:0.564706;stroke-width:1.3525;stroke-linecap:butt;stroke-linejoin:miter;stroke:rgb(0%,0%,0%);stroke-opacity:0.25098;stroke-miterlimit:4;" d="M 52.595282 16.99476 C 43.546038 18.572333 33.234109 35.99734 38.004253 38.937362 C 49.298271 33.272442 71.325113 25.456286 93.00121 23.233343 C 97.28031 20.938692 103.102692 13.911323 103.31314 12.33375 C 88.441513 11.473256 62.416168 15.058648 52.595282 16.99476 Z M 52.595282 16.99476 " transform="matrix(0.0556849,0,0,0.0544745,0.00873702,0)"/>
<path style="fill-rule:evenodd;fill:rgb(18.039216%,52.941176%,81.176471%);fill-opacity:0.564706;stroke-width:1.3525;stroke-linecap:butt;stroke-linejoin:miter;stroke:rgb(0%,0%,0%);stroke-opacity:0.25098;stroke-miterlimit:4;" d="M 298.678606 12.118626 C 307.72785 13.696199 318.03978 26.747028 313.269636 29.687049 C 301.975618 23.950422 279.948775 22.157725 258.272678 19.934782 C 253.993578 17.640131 248.171197 8.963481 247.960749 7.385908 C 262.832375 6.525414 288.857721 10.182515 298.678606 12.118626 Z M 298.678606 12.118626 " transform="matrix(0.0556849,0,0,0.0544745,0.00873702,0)"/>
<path style="fill:none;stroke-width:1.25;stroke-linecap:butt;stroke-linejoin:miter;stroke:rgb(0%,0%,0%);stroke-opacity:0.372549;stroke-miterlimit:4;" d="M 112.292235 10.397638 C 149.401151 3.800516 212.114518 4.374179 238.841356 7.67274 " transform="matrix(0.0556849,0,0,0.0544745,0.00873702,0)"/>
<path style="fill:none;stroke-width:1.25;stroke-linecap:butt;stroke-linejoin:miter;stroke:rgb(0%,0%,0%);stroke-opacity:0.372549;stroke-miterlimit:4;" d="M 112.292235 13.122536 C 149.401151 6.525414 212.114518 7.099077 238.841356 10.397638 " transform="matrix(0.0556849,0,0,0.0544745,0.00873702,0)"/>
<path style="fill:none;stroke-width:1.25;stroke-linecap:butt;stroke-linejoin:miter;stroke:rgb(0%,0%,0%);stroke-opacity:0.372549;stroke-miterlimit:4;" d="M 112.292235 16.34939 C 149.401151 9.823975 212.114518 10.397638 238.841356 13.624491 " transform="matrix(0.0556849,0,0,0.0544745,0.00873702,0)"/>
<path style="fill:none;stroke-width:1.25;stroke-linecap:butt;stroke-linejoin:miter;stroke:rgb(0%,0%,0%);stroke-opacity:0.372549;stroke-miterlimit:4;" d="M 112.292235 20.221613 C 149.401151 14.198154 210.501087 15.273772 236.666731 16.923052 " transform="matrix(0.0556849,0,0,0.0544745,0.00873702,0)"/>
<path style="fill-rule:evenodd;fill:rgb(0%,0%,0%);fill-opacity:0.686275;stroke-width:1.25;stroke-linecap:butt;stroke-linejoin:miter;stroke:rgb(0%,0%,0%);stroke-opacity:1;stroke-miterlimit:4;" d="M 43.125143 295.651461 C 43.125143 295.651461 59.68035 371.231533 59.68035 371.231533 C 59.68035 371.231533 59.68035 512.997951 57.295277 515.292602 C 54.980354 517.658961 36.040076 557.815356 36.040076 557.815356 C 36.040076 557.815356 40.81022 300.384179 43.125143 295.651461 Z M 43.125143 295.651461 " transform="matrix(0.0556849,0,0,0.0544745,0.00873702,0)"/>
<path style="fill:none;stroke-width:1.25;stroke-linecap:butt;stroke-linejoin:miter;stroke:rgb(0%,0%,0%);stroke-opacity:1;stroke-miterlimit:4;" d="M 36.320673 310.494985 C 34.00575 336.166395 21.378897 754.008031 41.020668 753.864615 C 110.889251 780.324811 262.621928 777.456497 319.512913 746.837246 C 337.050208 746.765538 326.527831 329.210734 324.212908 303.539324 " transform="matrix(0.0556849,0,0,0.0544745,0.00873702,0)"/>
<path style="fill-rule:evenodd;fill:rgb(0%,0%,0%);fill-opacity:0.74902;stroke-width:1.25;stroke-linecap:butt;stroke-linejoin:miter;stroke:rgb(0%,0%,0%);stroke-opacity:1;stroke-miterlimit:4;" d="M 317.19799 290.918743 C 317.19799 290.918743 300.642783 366.498815 300.642783 366.498815 C 300.642783 366.498815 300.642783 508.265233 303.027855 510.631592 C 305.342778 512.997951 324.283057 553.154346 324.283057 553.154346 C 324.283057 553.154346 319.512913 295.651461 317.19799 290.918743 Z M 317.19799 290.918743 " transform="matrix(0.0556849,0,0,0.0544745,0.00873702,0)"/>
</g>
</svg>
